M48
;GenerationSoftware,Autodesk,EAGLE,9.6.2*%
;CreationDate,2021-07-15T19:48:48Z*%
FMAT,2
ICI,OFF
METRIC,TZ,000.000
T1C0.400
%
G90
M71
T1
X27889Y16510
X26619Y16510
X25349Y16510
X23927Y17526
X25349Y15240
X25349Y13970
X25349Y12700
X25349Y11430
X25349Y10160
X25349Y8890
X25349Y7620
X23825Y5334
X25349Y6350
X26619Y6350
X29159Y6350
X30429Y6350
X31699Y6350
X32969Y6350
X34493Y5334
X32969Y7620
X32969Y8890
X32969Y10160
X32969Y11430
X32969Y12700
X32969Y13970
X32969Y15240
X34493Y17526
X32969Y16510
X8890Y16510
X7620Y16510
X6350Y16510
X4826Y17526
X6350Y15240
X6350Y13970
X6350Y12700
X6350Y11430
X6350Y10160
X6350Y8890
X6350Y7620
X4826Y5334
X6350Y6350
X7620Y6350
X10160Y6350
X11430Y6350
X12700Y6350
X13970Y6350
X15494Y5334
X13970Y7620
X13970Y8890
X13970Y10160
X13970Y11430
X13970Y12700
X13970Y13970
X13970Y15240
X15494Y17526
X13970Y16510
X12700Y16510
X31699Y16510
X27889Y6350
X8890Y6350
X30429Y16510
X11430Y16510
M30