G04 EAGLE Gerber RS-274X export*
G75*
%MOMM*%
%FSLAX34Y34*%
%LPD*%
%INSoldermask Bottom*%
%IPPOS*%
%AMOC8*
5,1,8,0,0,1.08239X$1,22.5*%
G01*
%ADD10R,1.103200X4.403200*%
%ADD11R,4.403200X1.103200*%


D10*
X291600Y198050D03*
X304300Y198050D03*
X317000Y198050D03*
X329700Y198050D03*
D11*
X362850Y165100D03*
X362850Y152400D03*
X362850Y139700D03*
X362850Y127000D03*
X362850Y114300D03*
X362850Y101600D03*
X362850Y88900D03*
X362850Y76200D03*
X362850Y63500D03*
D10*
X329700Y30550D03*
X317000Y30550D03*
X304300Y30550D03*
X291600Y30550D03*
X278900Y30550D03*
X266200Y30550D03*
X253500Y30550D03*
D11*
X220350Y63500D03*
X220350Y76200D03*
X220350Y88900D03*
X220350Y101600D03*
X220350Y114300D03*
X220350Y127000D03*
X220350Y139700D03*
X220350Y152400D03*
X220350Y165100D03*
D10*
X253500Y198050D03*
X266200Y198050D03*
X278900Y198050D03*
X101600Y198050D03*
X114300Y198050D03*
X127000Y198050D03*
X139700Y198050D03*
D11*
X172850Y165100D03*
X172850Y152400D03*
X172850Y139700D03*
X172850Y127000D03*
X172850Y114300D03*
X172850Y101600D03*
X172850Y88900D03*
X172850Y76200D03*
X172850Y63500D03*
D10*
X139700Y30550D03*
X127000Y30550D03*
X114300Y30550D03*
X101600Y30550D03*
X88900Y30550D03*
X76200Y30550D03*
X63500Y30550D03*
D11*
X30350Y63500D03*
X30350Y76200D03*
X30350Y88900D03*
X30350Y101600D03*
X30350Y114300D03*
X30350Y127000D03*
X30350Y139700D03*
X30350Y152400D03*
X30350Y165100D03*
D10*
X63500Y198050D03*
X76200Y198050D03*
X88900Y198050D03*
M02*
