G04 EAGLE Gerber RS-274X export*
G75*
%MOMM*%
%FSLAX34Y34*%
%LPD*%
%INBottom Copper*%
%IPPOS*%
%AMOC8*
5,1,8,0,0,1.08239X$1,22.5*%
G01*
%ADD10R,3.000000X0.750000*%
%ADD11C,1.422400*%
%ADD12C,2.000000*%
%ADD13C,0.508000*%
%ADD14C,0.806400*%
%ADD15C,0.254000*%


D10*
X16000Y145500D03*
X16000Y158200D03*
X16000Y170900D03*
X16000Y183600D03*
X16000Y196300D03*
X16000Y209000D03*
X16000Y221700D03*
X16000Y234400D03*
X16000Y247100D03*
X16000Y259800D03*
X16000Y272500D03*
X16000Y285200D03*
X16000Y297900D03*
X16000Y310600D03*
X16000Y323300D03*
X16000Y336000D03*
X16000Y348700D03*
X16000Y361400D03*
X16000Y374100D03*
X16000Y386800D03*
X16000Y399500D03*
X16000Y412200D03*
X16000Y424900D03*
X16000Y437600D03*
X16000Y450300D03*
X16000Y463000D03*
X16000Y475700D03*
X16000Y488400D03*
X16000Y501100D03*
X16000Y513800D03*
X16000Y526500D03*
X16000Y539200D03*
X16000Y551900D03*
X16000Y564600D03*
D11*
X762000Y83312D02*
X762000Y69088D01*
X736600Y69088D02*
X736600Y83312D01*
D12*
X574251Y618240D03*
X523451Y618240D03*
D13*
X680000Y170900D02*
X686435Y164465D01*
X406400Y170900D02*
X16000Y170900D01*
X406400Y170900D02*
X680000Y170900D01*
X685800Y190500D02*
X680000Y196300D01*
X406400Y196300D02*
X16000Y196300D01*
X406400Y196300D02*
X680000Y196300D01*
X406400Y539200D02*
X16000Y539200D01*
X406400Y539200D02*
X680000Y539200D01*
X685800Y533400D01*
X406400Y513800D02*
X16000Y513800D01*
X406400Y513800D02*
X680000Y513800D01*
X685800Y508000D01*
X680000Y348700D02*
X685800Y342900D01*
X406400Y348700D02*
X16000Y348700D01*
X406400Y348700D02*
X680000Y348700D01*
X406400Y259800D02*
X16000Y259800D01*
X406400Y259800D02*
X680000Y259800D01*
X685800Y254000D01*
D14*
X406400Y170900D03*
X406400Y196215D03*
D13*
X406400Y196300D01*
D14*
X406400Y259800D03*
X406400Y348700D03*
X406400Y513715D03*
D13*
X406400Y513800D01*
X406400Y539115D02*
X406400Y539200D01*
D14*
X406400Y539115D03*
D13*
X685800Y164465D02*
X686435Y164465D01*
D14*
X685800Y533400D03*
X685800Y164465D03*
X685800Y190500D03*
X685800Y254000D03*
X685800Y342900D03*
X685800Y508000D03*
X755015Y227965D03*
D15*
X686435Y215265D02*
X680000Y221700D01*
X686435Y215265D02*
X742315Y215265D01*
X755015Y227965D01*
X680000Y221700D02*
X16000Y221700D01*
D14*
X755015Y253365D03*
D15*
X686435Y240665D02*
X680000Y247100D01*
X686435Y240665D02*
X742315Y240665D01*
X755015Y253365D01*
X680000Y247100D02*
X16000Y247100D01*
D14*
X755015Y278765D03*
D15*
X686435Y266065D02*
X680000Y272500D01*
X686435Y266065D02*
X742315Y266065D01*
X755015Y278765D01*
X680000Y272500D02*
X16000Y272500D01*
D14*
X755015Y304165D03*
D15*
X686435Y291465D02*
X680000Y297900D01*
X686435Y291465D02*
X742315Y291465D01*
X755015Y304165D01*
X680000Y297900D02*
X16000Y297900D01*
D14*
X755015Y329565D03*
D15*
X686435Y316865D02*
X680000Y323300D01*
X686435Y316865D02*
X742315Y316865D01*
X755015Y329565D01*
X680000Y323300D02*
X16000Y323300D01*
D14*
X755015Y380365D03*
D15*
X686435Y367665D02*
X680000Y374100D01*
X686435Y367665D02*
X742315Y367665D01*
X755015Y380365D01*
X680000Y374100D02*
X16000Y374100D01*
D14*
X755015Y405765D03*
D15*
X686435Y393065D02*
X680000Y399500D01*
X686435Y393065D02*
X742315Y393065D01*
X755015Y405765D01*
X680000Y399500D02*
X16000Y399500D01*
D14*
X755015Y431165D03*
D15*
X686435Y418465D02*
X680000Y424900D01*
X686435Y418465D02*
X742315Y418465D01*
X755015Y431165D01*
X680000Y424900D02*
X16000Y424900D01*
D14*
X755015Y456565D03*
D15*
X686435Y443865D02*
X680000Y450300D01*
X686435Y443865D02*
X742315Y443865D01*
X755015Y456565D01*
X680000Y450300D02*
X16000Y450300D01*
D14*
X755015Y481965D03*
D15*
X686435Y469265D02*
X680000Y475700D01*
X686435Y469265D02*
X742315Y469265D01*
X755015Y481965D01*
X680000Y475700D02*
X16000Y475700D01*
D14*
X755015Y507365D03*
D15*
X686435Y494665D02*
X680000Y501100D01*
X686435Y494665D02*
X742315Y494665D01*
X755015Y507365D01*
X680000Y501100D02*
X16000Y501100D01*
D14*
X755015Y532765D03*
D15*
X686435Y520065D02*
X680000Y526500D01*
X686435Y520065D02*
X742315Y520065D01*
X755015Y532765D01*
X680000Y526500D02*
X16000Y526500D01*
D14*
X755015Y558165D03*
D15*
X686435Y545465D02*
X680000Y551900D01*
X686435Y545465D02*
X742315Y545465D01*
X755015Y558165D01*
X680000Y551900D02*
X16000Y551900D01*
D14*
X701040Y151765D03*
D15*
X686435Y151765D01*
X680000Y158200D02*
X16000Y158200D01*
X680000Y158200D02*
X686435Y151765D01*
D14*
X701040Y177165D03*
D15*
X686435Y177165D01*
X680000Y183600D02*
X16000Y183600D01*
X680000Y183600D02*
X686435Y177165D01*
D14*
X701040Y202565D03*
D15*
X686435Y202565D01*
X680000Y209000D02*
X16000Y209000D01*
X680000Y209000D02*
X686435Y202565D01*
D14*
X701040Y227965D03*
D15*
X686435Y227965D01*
X680000Y234400D02*
X16000Y234400D01*
X680000Y234400D02*
X686435Y227965D01*
D14*
X701040Y278765D03*
D15*
X686435Y278765D01*
X680000Y285200D02*
X16000Y285200D01*
X680000Y285200D02*
X686435Y278765D01*
D14*
X701040Y304165D03*
D15*
X686435Y304165D01*
X680000Y310600D02*
X16000Y310600D01*
X680000Y310600D02*
X686435Y304165D01*
D14*
X701040Y329565D03*
D15*
X686435Y329565D01*
X680000Y336000D02*
X16000Y336000D01*
X680000Y336000D02*
X686435Y329565D01*
D14*
X701040Y354965D03*
D15*
X686435Y354965D01*
X680000Y361400D02*
X16000Y361400D01*
X680000Y361400D02*
X686435Y354965D01*
D14*
X701040Y380365D03*
D15*
X686435Y380365D01*
X680000Y386800D02*
X16000Y386800D01*
X680000Y386800D02*
X686435Y380365D01*
D14*
X701040Y405765D03*
D15*
X686435Y405765D01*
X680000Y412200D02*
X16000Y412200D01*
X680000Y412200D02*
X686435Y405765D01*
D14*
X701040Y431165D03*
D15*
X686435Y431165D01*
X680000Y437600D02*
X16000Y437600D01*
X680000Y437600D02*
X686435Y431165D01*
D14*
X701040Y456565D03*
D15*
X686435Y456565D01*
X680000Y463000D02*
X16000Y463000D01*
X680000Y463000D02*
X686435Y456565D01*
D14*
X701040Y481965D03*
D15*
X686435Y481965D01*
X680000Y488400D02*
X16000Y488400D01*
X680000Y488400D02*
X686435Y481965D01*
D14*
X701040Y558165D03*
D13*
X686435Y558165D01*
X680000Y564600D02*
X16000Y564600D01*
X680000Y564600D02*
X686435Y558165D01*
D14*
X755015Y151765D03*
D13*
X686435Y139065D02*
X680000Y145500D01*
X686435Y139065D02*
X742315Y139065D01*
X755015Y151765D01*
X680000Y145500D02*
X16000Y145500D01*
M02*
