G04 EAGLE Gerber RS-274X export*
G75*
%MOMM*%
%FSLAX34Y34*%
%LPD*%
%INTop Copper*%
%IPPOS*%
%AMOC8*
5,1,8,0,0,1.08239X$1,22.5*%
G01*
%ADD10R,3.100000X1.500000*%
%ADD11R,3.000000X0.750000*%
%ADD12C,1.422400*%
%ADD13C,2.000000*%
%ADD14C,0.508000*%
%ADD15C,0.254000*%
%ADD16C,0.806400*%


D10*
X377000Y151800D03*
X377000Y177200D03*
X377000Y202600D03*
X377000Y228000D03*
X377000Y253400D03*
X377000Y278800D03*
X377000Y304200D03*
X377000Y329600D03*
X377000Y355000D03*
X377000Y380400D03*
X377000Y405800D03*
X377000Y431200D03*
X377000Y456600D03*
X377000Y482000D03*
X377000Y507400D03*
X377000Y532800D03*
X377000Y558200D03*
X323000Y151800D03*
X323000Y177200D03*
X323000Y202600D03*
X323000Y228000D03*
X323000Y253400D03*
X323000Y278800D03*
X323000Y304200D03*
X323000Y329600D03*
X323000Y355000D03*
X323000Y380400D03*
X323000Y405800D03*
X323000Y431200D03*
X323000Y456600D03*
X323000Y482000D03*
X323000Y507400D03*
X323000Y532800D03*
X323000Y558200D03*
X777000Y151800D03*
X777000Y177200D03*
X777000Y202600D03*
X777000Y228000D03*
X777000Y253400D03*
X777000Y278800D03*
X777000Y304200D03*
X777000Y329600D03*
X777000Y355000D03*
X777000Y380400D03*
X777000Y405800D03*
X777000Y431200D03*
X777000Y456600D03*
X777000Y482000D03*
X777000Y507400D03*
X777000Y532800D03*
X777000Y558200D03*
X723000Y151800D03*
X723000Y177200D03*
X723000Y202600D03*
X723000Y228000D03*
X723000Y253400D03*
X723000Y278800D03*
X723000Y304200D03*
X723000Y329600D03*
X723000Y355000D03*
X723000Y380400D03*
X723000Y405800D03*
X723000Y431200D03*
X723000Y456600D03*
X723000Y482000D03*
X723000Y507400D03*
X723000Y532800D03*
X723000Y558200D03*
D11*
X16000Y145500D03*
X16000Y158200D03*
X16000Y170900D03*
X16000Y183600D03*
X16000Y196300D03*
X16000Y209000D03*
X16000Y221700D03*
X16000Y234400D03*
X16000Y247100D03*
X16000Y259800D03*
X16000Y272500D03*
X16000Y285200D03*
X16000Y297900D03*
X16000Y310600D03*
X16000Y323300D03*
X16000Y336000D03*
X16000Y348700D03*
X16000Y361400D03*
X16000Y374100D03*
X16000Y386800D03*
X16000Y399500D03*
X16000Y412200D03*
X16000Y424900D03*
X16000Y437600D03*
X16000Y450300D03*
X16000Y463000D03*
X16000Y475700D03*
X16000Y488400D03*
X16000Y501100D03*
X16000Y513800D03*
X16000Y526500D03*
X16000Y539200D03*
X16000Y551900D03*
X16000Y564600D03*
D12*
X762000Y83312D02*
X762000Y69088D01*
X736600Y69088D02*
X736600Y83312D01*
D13*
X574251Y618240D03*
X523451Y618240D03*
D14*
X292650Y145500D02*
X16000Y145500D01*
X292650Y145500D02*
X299085Y139065D01*
X354965Y139065D01*
X368300Y152400D01*
D15*
X376400Y152400D01*
X377000Y151800D01*
X292650Y170900D02*
X16000Y170900D01*
X292650Y170900D02*
X299085Y164465D01*
X342265Y164465D01*
X355000Y177200D02*
X377000Y177200D01*
X355000Y177200D02*
X342265Y164465D01*
X292650Y196300D02*
X16000Y196300D01*
X292650Y196300D02*
X299085Y189865D01*
X342265Y189865D01*
X355000Y202600D02*
X377000Y202600D01*
X355000Y202600D02*
X342265Y189865D01*
X292650Y221700D02*
X16000Y221700D01*
X292650Y221700D02*
X299085Y215265D01*
X342265Y215265D01*
X355000Y228000D02*
X377000Y228000D01*
X355000Y228000D02*
X342265Y215265D01*
X292650Y247100D02*
X16000Y247100D01*
X292650Y247100D02*
X299085Y240665D01*
X354965Y240665D01*
X367700Y253400D02*
X377000Y253400D01*
X367700Y253400D02*
X354965Y240665D01*
X292650Y272500D02*
X16000Y272500D01*
X292650Y272500D02*
X299085Y266065D01*
X342265Y266065D01*
X355000Y278800D02*
X377000Y278800D01*
X355000Y278800D02*
X342265Y266065D01*
X292650Y297900D02*
X16000Y297900D01*
X292650Y297900D02*
X299085Y291465D01*
X354965Y291465D01*
X367700Y304200D02*
X377000Y304200D01*
X367700Y304200D02*
X354965Y291465D01*
X292650Y323300D02*
X16000Y323300D01*
X292650Y323300D02*
X299085Y316865D01*
X354965Y316865D01*
X367700Y329600D02*
X377000Y329600D01*
X367700Y329600D02*
X354965Y316865D01*
D14*
X292650Y348700D02*
X16000Y348700D01*
X292650Y348700D02*
X299085Y342265D01*
X354965Y342265D01*
D15*
X367700Y355000D02*
X377000Y355000D01*
D14*
X367700Y355000D02*
X354965Y342265D01*
D15*
X292650Y374100D02*
X16000Y374100D01*
X292650Y374100D02*
X299085Y367665D01*
X354965Y367665D01*
X367700Y380400D02*
X377000Y380400D01*
X367700Y380400D02*
X354965Y367665D01*
X292650Y399500D02*
X16000Y399500D01*
X292650Y399500D02*
X299085Y393065D01*
X354965Y393065D01*
X367700Y405800D02*
X377000Y405800D01*
X367700Y405800D02*
X354965Y393065D01*
X292650Y424900D02*
X16000Y424900D01*
X292650Y424900D02*
X299085Y418465D01*
X354965Y418465D01*
X367700Y431200D02*
X377000Y431200D01*
X367700Y431200D02*
X354965Y418465D01*
X292650Y450300D02*
X16000Y450300D01*
X292650Y450300D02*
X299085Y443865D01*
X342265Y443865D01*
X355000Y456600D02*
X377000Y456600D01*
X355000Y456600D02*
X342265Y443865D01*
X292650Y475700D02*
X16000Y475700D01*
X292650Y475700D02*
X299085Y469265D01*
X354965Y469265D01*
X367700Y482000D02*
X377000Y482000D01*
X367700Y482000D02*
X354965Y469265D01*
X292650Y234400D02*
X16000Y234400D01*
X299050Y228000D02*
X323000Y228000D01*
X299050Y228000D02*
X292650Y234400D01*
X292650Y285200D02*
X16000Y285200D01*
X299050Y278800D02*
X323000Y278800D01*
X299050Y278800D02*
X292650Y285200D01*
X292650Y310600D02*
X16000Y310600D01*
X299050Y304200D02*
X323000Y304200D01*
X299050Y304200D02*
X292650Y310600D01*
X292650Y336000D02*
X16000Y336000D01*
X299050Y329600D02*
X323000Y329600D01*
X299050Y329600D02*
X292650Y336000D01*
X292650Y361400D02*
X16000Y361400D01*
X299050Y355000D02*
X323000Y355000D01*
X299050Y355000D02*
X292650Y361400D01*
X292650Y386800D02*
X16000Y386800D01*
X299050Y380400D02*
X323000Y380400D01*
X299050Y380400D02*
X292650Y386800D01*
X292650Y412200D02*
X16000Y412200D01*
X299050Y405800D02*
X323000Y405800D01*
X299050Y405800D02*
X292650Y412200D01*
X292650Y463000D02*
X16000Y463000D01*
X299050Y456600D02*
X323000Y456600D01*
X299050Y456600D02*
X292650Y463000D01*
X292650Y488400D02*
X16000Y488400D01*
X299050Y482000D02*
X323000Y482000D01*
X299050Y482000D02*
X292650Y488400D01*
X292650Y513800D02*
X16000Y513800D01*
X299050Y507400D02*
X323000Y507400D01*
X299050Y507400D02*
X292650Y513800D01*
X292650Y539200D02*
X16000Y539200D01*
X299050Y532800D02*
X323000Y532800D01*
X299050Y532800D02*
X292650Y539200D01*
D14*
X292650Y564600D02*
X16000Y564600D01*
X299050Y558200D02*
X323000Y558200D01*
X299050Y558200D02*
X292650Y564600D01*
D15*
X762000Y114300D02*
X762000Y76200D01*
D14*
X292650Y551900D02*
X16000Y551900D01*
X292650Y551900D02*
X299085Y545465D01*
X354965Y545465D01*
D15*
X367700Y558200D02*
X377000Y558200D01*
D14*
X367700Y558200D02*
X354965Y545465D01*
X292650Y526500D02*
X16000Y526500D01*
X292650Y526500D02*
X299085Y520065D01*
X354965Y520065D01*
D15*
X367700Y532800D02*
X377000Y532800D01*
D14*
X367700Y532800D02*
X354965Y520065D01*
X292650Y501100D02*
X16000Y501100D01*
X292650Y501100D02*
X299085Y494665D01*
X354965Y494665D01*
D15*
X367700Y507400D02*
X377000Y507400D01*
D14*
X367700Y507400D02*
X354965Y494665D01*
X292650Y437600D02*
X16000Y437600D01*
X299050Y431200D02*
X323000Y431200D01*
X299050Y431200D02*
X292650Y437600D01*
X292650Y259800D02*
X16000Y259800D01*
X299050Y253400D02*
X323000Y253400D01*
X299050Y253400D02*
X292650Y259800D01*
X292650Y209000D02*
X16000Y209000D01*
X299050Y202600D02*
X323000Y202600D01*
X299050Y202600D02*
X292650Y209000D01*
X292650Y183600D02*
X16000Y183600D01*
X299050Y177200D02*
X323000Y177200D01*
X299050Y177200D02*
X292650Y183600D01*
X292650Y158200D02*
X16000Y158200D01*
X299050Y151800D02*
X323000Y151800D01*
X299050Y151800D02*
X292650Y158200D01*
X323000Y151800D02*
X342300Y151800D01*
X354965Y164465D01*
X406400Y164465D01*
X406400Y170900D02*
X406400Y189865D01*
X406400Y190500D01*
X406400Y196215D01*
X406400Y215265D01*
X406400Y215900D01*
X406400Y259800D01*
X406400Y266065D01*
X406400Y266700D01*
X406400Y348700D01*
X406400Y443865D02*
X406400Y444500D01*
X406400Y508000D01*
X406400Y513715D01*
X406400Y533400D01*
X406400Y539115D01*
X406400Y558800D01*
X406400Y596900D01*
X427740Y618240D02*
X523451Y618240D01*
X427740Y618240D02*
X406400Y596900D01*
X405800Y558200D02*
X377000Y558200D01*
X405800Y558200D02*
X406400Y558800D01*
X405800Y532800D02*
X377000Y532800D01*
X405800Y532800D02*
X406400Y533400D01*
X405800Y507400D02*
X377000Y507400D01*
X405800Y507400D02*
X406400Y508000D01*
X342300Y431200D02*
X323000Y431200D01*
X342300Y431200D02*
X354965Y443865D01*
X406400Y443865D01*
X342300Y253400D02*
X323000Y253400D01*
X342300Y253400D02*
X354965Y266065D01*
X406400Y266065D01*
X342300Y202600D02*
X323000Y202600D01*
X342300Y202600D02*
X354965Y215265D01*
X406400Y215265D01*
X342300Y177200D02*
X323000Y177200D01*
X342300Y177200D02*
X354965Y189865D01*
X406400Y189865D01*
X685800Y164465D02*
X742315Y164465D01*
X685800Y164465D02*
X685800Y189865D01*
X685800Y190500D01*
X685800Y254000D01*
X685800Y342265D01*
X685800Y342900D01*
X685800Y508000D01*
X685800Y533400D01*
X685800Y558800D01*
X673100Y571500D01*
X552450Y571500D01*
X523451Y600499D02*
X523451Y618240D01*
X523451Y600499D02*
X552450Y571500D01*
X685800Y189865D02*
X742315Y189865D01*
X742315Y342265D02*
X686435Y342265D01*
D16*
X406400Y170900D03*
D14*
X406400Y164465D01*
D16*
X406400Y196215D03*
X406400Y259800D03*
X406400Y348700D03*
D14*
X406400Y443865D01*
D16*
X406400Y513715D03*
X406400Y539115D03*
D14*
X685800Y342265D02*
X686435Y342265D01*
D16*
X685800Y533400D03*
X685800Y164465D03*
X685800Y190500D03*
X685800Y254000D03*
D14*
X686435Y342265D02*
X685800Y342900D01*
D16*
X685800Y342900D03*
X685800Y508000D03*
D14*
X755050Y177200D02*
X777000Y177200D01*
X755050Y177200D02*
X742315Y164465D01*
X755050Y202600D02*
X777000Y202600D01*
X755050Y202600D02*
X742315Y189865D01*
X686400Y253400D02*
X685800Y254000D01*
X686400Y253400D02*
X723000Y253400D01*
X723000Y507400D02*
X686400Y507400D01*
X685800Y508000D01*
X686400Y532800D02*
X723000Y532800D01*
X686400Y532800D02*
X685800Y533400D01*
X755050Y355000D02*
X777000Y355000D01*
X755050Y355000D02*
X742315Y342265D01*
D15*
X742315Y164465D02*
X742315Y133985D01*
X762000Y114300D01*
X754980Y228000D02*
X777000Y228000D01*
X755015Y227965D02*
X754980Y228000D01*
D16*
X755015Y227965D03*
D15*
X754980Y253400D02*
X777000Y253400D01*
X755015Y253365D02*
X754980Y253400D01*
D16*
X755015Y253365D03*
D15*
X754980Y278800D02*
X777000Y278800D01*
X755015Y278765D02*
X754980Y278800D01*
D16*
X755015Y278765D03*
D15*
X754980Y304200D02*
X777000Y304200D01*
X755015Y304165D02*
X754980Y304200D01*
D16*
X755015Y304165D03*
D15*
X754980Y329600D02*
X777000Y329600D01*
X755015Y329565D02*
X754980Y329600D01*
D16*
X755015Y329565D03*
D15*
X754980Y380400D02*
X777000Y380400D01*
X755015Y380365D02*
X754980Y380400D01*
D16*
X755015Y380365D03*
D15*
X754980Y405800D02*
X777000Y405800D01*
X755015Y405765D02*
X754980Y405800D01*
D16*
X755015Y405765D03*
D15*
X754980Y431200D02*
X777000Y431200D01*
X755015Y431165D02*
X754980Y431200D01*
D16*
X755015Y431165D03*
D15*
X754980Y456600D02*
X777000Y456600D01*
X755015Y456565D02*
X754980Y456600D01*
D16*
X755015Y456565D03*
D15*
X754980Y482000D02*
X777000Y482000D01*
X755015Y481965D02*
X754980Y482000D01*
D16*
X755015Y481965D03*
D15*
X754980Y507400D02*
X777000Y507400D01*
X755015Y507365D02*
X754980Y507400D01*
D16*
X755015Y507365D03*
D15*
X754980Y532800D02*
X777000Y532800D01*
X755015Y532765D02*
X754980Y532800D01*
D16*
X755015Y532765D03*
D15*
X754980Y558200D02*
X777000Y558200D01*
X755015Y558165D02*
X754980Y558200D01*
D16*
X755015Y558165D03*
D15*
X723000Y151800D02*
X701075Y151800D01*
X701040Y151765D01*
D16*
X701040Y151765D03*
D15*
X736600Y114300D02*
X736600Y76200D01*
X723000Y127900D02*
X723000Y151800D01*
X723000Y127900D02*
X736600Y114300D01*
X723000Y177200D02*
X701075Y177200D01*
X701040Y177165D01*
D16*
X701040Y177165D03*
D15*
X701075Y202600D02*
X723000Y202600D01*
X701075Y202600D02*
X701040Y202565D01*
D16*
X701040Y202565D03*
D15*
X701075Y228000D02*
X723000Y228000D01*
X701075Y228000D02*
X701040Y227965D01*
D16*
X701040Y227965D03*
D15*
X701075Y278800D02*
X723000Y278800D01*
X701075Y278800D02*
X701040Y278765D01*
D16*
X701040Y278765D03*
D15*
X701075Y304200D02*
X723000Y304200D01*
X701075Y304200D02*
X701040Y304165D01*
D16*
X701040Y304165D03*
D15*
X701075Y329600D02*
X723000Y329600D01*
X701075Y329600D02*
X701040Y329565D01*
D16*
X701040Y329565D03*
D15*
X701075Y355000D02*
X723000Y355000D01*
X701075Y355000D02*
X701040Y354965D01*
D16*
X701040Y354965D03*
D15*
X701075Y380400D02*
X723000Y380400D01*
X701075Y380400D02*
X701040Y380365D01*
D16*
X701040Y380365D03*
D15*
X701075Y405800D02*
X723000Y405800D01*
X701075Y405800D02*
X701040Y405765D01*
D16*
X701040Y405765D03*
D15*
X701075Y431200D02*
X723000Y431200D01*
X701075Y431200D02*
X701040Y431165D01*
D16*
X701040Y431165D03*
D15*
X701075Y456600D02*
X723000Y456600D01*
X701075Y456600D02*
X701040Y456565D01*
D16*
X701040Y456565D03*
D15*
X701075Y482000D02*
X723000Y482000D01*
X701075Y482000D02*
X701040Y481965D01*
D16*
X701040Y481965D03*
D14*
X701075Y558200D02*
X723000Y558200D01*
D15*
X701075Y558200D02*
X701040Y558165D01*
D16*
X701040Y558165D03*
D14*
X754980Y151800D02*
X777000Y151800D01*
D15*
X755015Y151765D02*
X754980Y151800D01*
D16*
X755015Y151765D03*
D14*
X777000Y151800D02*
X799500Y151800D01*
X800100Y152400D01*
X800100Y571500D01*
X698500Y571500D02*
X685800Y584200D01*
X574251Y600499D02*
X574251Y618240D01*
X698500Y571500D02*
X800100Y571500D01*
X685800Y584200D02*
X590550Y584200D01*
X574251Y600499D01*
X701040Y568960D02*
X701040Y558165D01*
X701040Y568960D02*
X698500Y571500D01*
M02*
