M48
;GenerationSoftware,Autodesk,EAGLE,9.6.1*%
;CreationDate,2021-05-12T06:49:24Z*%
FMAT,2
ICI,OFF
METRIC,TZ,000.000
T4C0.400
T3C0.914
T2C1.300
T1C3.000
%
G90
M71
T1
X98500Y65000
X98500Y6000
X92500Y5250
X19500Y5000
X19500Y66000
T2
X52345Y61824
X57425Y61824
X2250Y59500
X2250Y11500
T3
X73660Y7620
X76200Y7620
T4
X68580Y50800
X75502Y22796
X75502Y25336
X75502Y27876
X75502Y30416
X75502Y32957
X75502Y38037
X75502Y40577
X75502Y43117
X75502Y45656
X75502Y48196
X75502Y50736
X75502Y53276
X75502Y55816
X40640Y17090
X70104Y17717
X70104Y20257
X70104Y22796
X70104Y27876
X70104Y30416
X70104Y32957
X70104Y35497
X70104Y38037
X70104Y40577
X70104Y43117
X70104Y45656
X70104Y48196
X70104Y55816
X75502Y15176
X68580Y34290
X68580Y25400
X68580Y19050
X68580Y16447
X68580Y53340
X40640Y53911
X40640Y51371
X40640Y34870
X40640Y25980
X40640Y19622
X70104Y15176
M30