G04 EAGLE Gerber RS-274X export*
G75*
%MOMM*%
%FSLAX34Y34*%
%LPD*%
%IN*%
%IPPOS*%
%AMOC8*
5,1,8,0,0,1.08239X$1,22.5*%
G01*
%ADD10C,0.254000*%


D10*
X0Y102465D02*
X140000Y102465D01*
X140000Y20000D01*
X160000Y0D01*
X1030000Y0D01*
X1030000Y710000D01*
X160000Y710000D01*
X140000Y690000D01*
X140000Y607535D01*
X0Y607535D01*
X0Y102465D01*
X29000Y114681D02*
X28937Y114045D01*
X28813Y113419D01*
X28627Y112808D01*
X28383Y112218D01*
X28082Y111654D01*
X27727Y111123D01*
X27322Y110630D01*
X26870Y110178D01*
X26377Y109773D01*
X25846Y109418D01*
X25282Y109117D01*
X24692Y108873D01*
X24081Y108687D01*
X23455Y108563D01*
X22819Y108500D01*
X22181Y108500D01*
X21545Y108563D01*
X20919Y108687D01*
X20308Y108873D01*
X19718Y109117D01*
X19154Y109418D01*
X18623Y109773D01*
X18130Y110178D01*
X17678Y110630D01*
X17273Y111123D01*
X16918Y111654D01*
X16617Y112218D01*
X16373Y112808D01*
X16187Y113419D01*
X16063Y114045D01*
X16000Y114681D01*
X16000Y115319D01*
X16063Y115955D01*
X16187Y116581D01*
X16373Y117192D01*
X16617Y117782D01*
X16918Y118346D01*
X17273Y118877D01*
X17678Y119370D01*
X18130Y119822D01*
X18623Y120227D01*
X19154Y120582D01*
X19718Y120883D01*
X20308Y121127D01*
X20919Y121313D01*
X21545Y121437D01*
X22181Y121500D01*
X22819Y121500D01*
X23455Y121437D01*
X24081Y121313D01*
X24692Y121127D01*
X25282Y120883D01*
X25846Y120582D01*
X26377Y120227D01*
X26870Y119822D01*
X27322Y119370D01*
X27727Y118877D01*
X28082Y118346D01*
X28383Y117782D01*
X28627Y117192D01*
X28813Y116581D01*
X28937Y115955D01*
X29000Y115319D01*
X29000Y114681D01*
X29000Y594681D02*
X28937Y594045D01*
X28813Y593419D01*
X28627Y592808D01*
X28383Y592218D01*
X28082Y591654D01*
X27727Y591123D01*
X27322Y590630D01*
X26870Y590178D01*
X26377Y589773D01*
X25846Y589418D01*
X25282Y589117D01*
X24692Y588873D01*
X24081Y588687D01*
X23455Y588563D01*
X22819Y588500D01*
X22181Y588500D01*
X21545Y588563D01*
X20919Y588687D01*
X20308Y588873D01*
X19718Y589117D01*
X19154Y589418D01*
X18623Y589773D01*
X18130Y590178D01*
X17678Y590630D01*
X17273Y591123D01*
X16918Y591654D01*
X16617Y592218D01*
X16373Y592808D01*
X16187Y593419D01*
X16063Y594045D01*
X16000Y594681D01*
X16000Y595319D01*
X16063Y595955D01*
X16187Y596581D01*
X16373Y597192D01*
X16617Y597782D01*
X16918Y598346D01*
X17273Y598877D01*
X17678Y599370D01*
X18130Y599822D01*
X18623Y600227D01*
X19154Y600582D01*
X19718Y600883D01*
X20308Y601127D01*
X20919Y601313D01*
X21545Y601437D01*
X22181Y601500D01*
X22819Y601500D01*
X23455Y601437D01*
X24081Y601313D01*
X24692Y601127D01*
X25282Y600883D01*
X25846Y600582D01*
X26377Y600227D01*
X26870Y599822D01*
X27322Y599370D01*
X27727Y598877D01*
X28082Y598346D01*
X28383Y597782D01*
X28627Y597192D01*
X28813Y596581D01*
X28937Y595955D01*
X29000Y595319D01*
X29000Y594681D01*
X210000Y659464D02*
X209924Y658396D01*
X209771Y657335D01*
X209543Y656288D01*
X209241Y655260D01*
X208867Y654256D01*
X208422Y653281D01*
X207908Y652341D01*
X207329Y651440D01*
X206687Y650582D01*
X205985Y649772D01*
X205228Y649015D01*
X204418Y648313D01*
X203560Y647671D01*
X202659Y647092D01*
X201719Y646578D01*
X200744Y646133D01*
X199740Y645759D01*
X198712Y645457D01*
X197665Y645229D01*
X196604Y645076D01*
X195536Y645000D01*
X194464Y645000D01*
X193396Y645076D01*
X192335Y645229D01*
X191288Y645457D01*
X190260Y645759D01*
X189256Y646133D01*
X188281Y646578D01*
X187341Y647092D01*
X186440Y647671D01*
X185582Y648313D01*
X184772Y649015D01*
X184015Y649772D01*
X183313Y650582D01*
X182671Y651440D01*
X182092Y652341D01*
X181578Y653281D01*
X181133Y654256D01*
X180759Y655260D01*
X180457Y656288D01*
X180229Y657335D01*
X180076Y658396D01*
X180000Y659464D01*
X180000Y660536D01*
X180076Y661604D01*
X180229Y662665D01*
X180457Y663712D01*
X180759Y664740D01*
X181133Y665744D01*
X181578Y666719D01*
X182092Y667659D01*
X182671Y668560D01*
X183313Y669418D01*
X184015Y670228D01*
X184772Y670985D01*
X185582Y671687D01*
X186440Y672329D01*
X187341Y672908D01*
X188281Y673422D01*
X189256Y673867D01*
X190260Y674241D01*
X191288Y674543D01*
X192335Y674771D01*
X193396Y674924D01*
X194464Y675000D01*
X195536Y675000D01*
X196604Y674924D01*
X197665Y674771D01*
X198712Y674543D01*
X199740Y674241D01*
X200744Y673867D01*
X201719Y673422D01*
X202659Y672908D01*
X203560Y672329D01*
X204418Y671687D01*
X205228Y670985D01*
X205985Y670228D01*
X206687Y669418D01*
X207329Y668560D01*
X207908Y667659D01*
X208422Y666719D01*
X208867Y665744D01*
X209241Y664740D01*
X209543Y663712D01*
X209771Y662665D01*
X209924Y661604D01*
X210000Y660536D01*
X210000Y659464D01*
X210000Y49464D02*
X209924Y48396D01*
X209771Y47335D01*
X209543Y46288D01*
X209241Y45260D01*
X208867Y44256D01*
X208422Y43281D01*
X207908Y42341D01*
X207329Y41440D01*
X206687Y40582D01*
X205985Y39772D01*
X205228Y39015D01*
X204418Y38313D01*
X203560Y37671D01*
X202659Y37092D01*
X201719Y36578D01*
X200744Y36133D01*
X199740Y35759D01*
X198712Y35457D01*
X197665Y35229D01*
X196604Y35076D01*
X195536Y35000D01*
X194464Y35000D01*
X193396Y35076D01*
X192335Y35229D01*
X191288Y35457D01*
X190260Y35759D01*
X189256Y36133D01*
X188281Y36578D01*
X187341Y37092D01*
X186440Y37671D01*
X185582Y38313D01*
X184772Y39015D01*
X184015Y39772D01*
X183313Y40582D01*
X182671Y41440D01*
X182092Y42341D01*
X181578Y43281D01*
X181133Y44256D01*
X180759Y45260D01*
X180457Y46288D01*
X180229Y47335D01*
X180076Y48396D01*
X180000Y49464D01*
X180000Y50536D01*
X180076Y51604D01*
X180229Y52665D01*
X180457Y53712D01*
X180759Y54740D01*
X181133Y55744D01*
X181578Y56719D01*
X182092Y57659D01*
X182671Y58560D01*
X183313Y59418D01*
X184015Y60228D01*
X184772Y60985D01*
X185582Y61687D01*
X186440Y62329D01*
X187341Y62908D01*
X188281Y63422D01*
X189256Y63867D01*
X190260Y64241D01*
X191288Y64543D01*
X192335Y64771D01*
X193396Y64924D01*
X194464Y65000D01*
X195536Y65000D01*
X196604Y64924D01*
X197665Y64771D01*
X198712Y64543D01*
X199740Y64241D01*
X200744Y63867D01*
X201719Y63422D01*
X202659Y62908D01*
X203560Y62329D01*
X204418Y61687D01*
X205228Y60985D01*
X205985Y60228D01*
X206687Y59418D01*
X207329Y58560D01*
X207908Y57659D01*
X208422Y56719D01*
X208867Y55744D01*
X209241Y54740D01*
X209543Y53712D01*
X209771Y52665D01*
X209924Y51604D01*
X210000Y50536D01*
X210000Y49464D01*
X940000Y51964D02*
X939924Y50896D01*
X939771Y49835D01*
X939543Y48788D01*
X939241Y47760D01*
X938867Y46756D01*
X938422Y45781D01*
X937908Y44841D01*
X937329Y43940D01*
X936687Y43082D01*
X935985Y42272D01*
X935228Y41515D01*
X934418Y40813D01*
X933560Y40171D01*
X932659Y39592D01*
X931719Y39078D01*
X930744Y38633D01*
X929740Y38259D01*
X928712Y37957D01*
X927665Y37729D01*
X926604Y37576D01*
X925536Y37500D01*
X924464Y37500D01*
X923396Y37576D01*
X922335Y37729D01*
X921288Y37957D01*
X920260Y38259D01*
X919256Y38633D01*
X918281Y39078D01*
X917341Y39592D01*
X916440Y40171D01*
X915582Y40813D01*
X914772Y41515D01*
X914015Y42272D01*
X913313Y43082D01*
X912671Y43940D01*
X912092Y44841D01*
X911578Y45781D01*
X911133Y46756D01*
X910759Y47760D01*
X910457Y48788D01*
X910229Y49835D01*
X910076Y50896D01*
X910000Y51964D01*
X910000Y53036D01*
X910076Y54104D01*
X910229Y55165D01*
X910457Y56212D01*
X910759Y57240D01*
X911133Y58244D01*
X911578Y59219D01*
X912092Y60159D01*
X912671Y61060D01*
X913313Y61918D01*
X914015Y62728D01*
X914772Y63485D01*
X915582Y64187D01*
X916440Y64829D01*
X917341Y65408D01*
X918281Y65922D01*
X919256Y66367D01*
X920260Y66741D01*
X921288Y67043D01*
X922335Y67271D01*
X923396Y67424D01*
X924464Y67500D01*
X925536Y67500D01*
X926604Y67424D01*
X927665Y67271D01*
X928712Y67043D01*
X929740Y66741D01*
X930744Y66367D01*
X931719Y65922D01*
X932659Y65408D01*
X933560Y64829D01*
X934418Y64187D01*
X935228Y63485D01*
X935985Y62728D01*
X936687Y61918D01*
X937329Y61060D01*
X937908Y60159D01*
X938422Y59219D01*
X938867Y58244D01*
X939241Y57240D01*
X939543Y56212D01*
X939771Y55165D01*
X939924Y54104D01*
X940000Y53036D01*
X940000Y51964D01*
X1000000Y59464D02*
X999924Y58396D01*
X999771Y57335D01*
X999543Y56288D01*
X999241Y55260D01*
X998867Y54256D01*
X998422Y53281D01*
X997908Y52341D01*
X997329Y51440D01*
X996687Y50582D01*
X995985Y49772D01*
X995228Y49015D01*
X994418Y48313D01*
X993560Y47671D01*
X992659Y47092D01*
X991719Y46578D01*
X990744Y46133D01*
X989740Y45759D01*
X988712Y45457D01*
X987665Y45229D01*
X986604Y45076D01*
X985536Y45000D01*
X984464Y45000D01*
X983396Y45076D01*
X982335Y45229D01*
X981288Y45457D01*
X980260Y45759D01*
X979256Y46133D01*
X978281Y46578D01*
X977341Y47092D01*
X976440Y47671D01*
X975582Y48313D01*
X974772Y49015D01*
X974015Y49772D01*
X973313Y50582D01*
X972671Y51440D01*
X972092Y52341D01*
X971578Y53281D01*
X971133Y54256D01*
X970759Y55260D01*
X970457Y56288D01*
X970229Y57335D01*
X970076Y58396D01*
X970000Y59464D01*
X970000Y60536D01*
X970076Y61604D01*
X970229Y62665D01*
X970457Y63712D01*
X970759Y64740D01*
X971133Y65744D01*
X971578Y66719D01*
X972092Y67659D01*
X972671Y68560D01*
X973313Y69418D01*
X974015Y70228D01*
X974772Y70985D01*
X975582Y71687D01*
X976440Y72329D01*
X977341Y72908D01*
X978281Y73422D01*
X979256Y73867D01*
X980260Y74241D01*
X981288Y74543D01*
X982335Y74771D01*
X983396Y74924D01*
X984464Y75000D01*
X985536Y75000D01*
X986604Y74924D01*
X987665Y74771D01*
X988712Y74543D01*
X989740Y74241D01*
X990744Y73867D01*
X991719Y73422D01*
X992659Y72908D01*
X993560Y72329D01*
X994418Y71687D01*
X995228Y70985D01*
X995985Y70228D01*
X996687Y69418D01*
X997329Y68560D01*
X997908Y67659D01*
X998422Y66719D01*
X998867Y65744D01*
X999241Y64740D01*
X999543Y63712D01*
X999771Y62665D01*
X999924Y61604D01*
X1000000Y60536D01*
X1000000Y59464D01*
X1000000Y649464D02*
X999924Y648396D01*
X999771Y647335D01*
X999543Y646288D01*
X999241Y645260D01*
X998867Y644256D01*
X998422Y643281D01*
X997908Y642341D01*
X997329Y641440D01*
X996687Y640582D01*
X995985Y639772D01*
X995228Y639015D01*
X994418Y638313D01*
X993560Y637671D01*
X992659Y637092D01*
X991719Y636578D01*
X990744Y636133D01*
X989740Y635759D01*
X988712Y635457D01*
X987665Y635229D01*
X986604Y635076D01*
X985536Y635000D01*
X984464Y635000D01*
X983396Y635076D01*
X982335Y635229D01*
X981288Y635457D01*
X980260Y635759D01*
X979256Y636133D01*
X978281Y636578D01*
X977341Y637092D01*
X976440Y637671D01*
X975582Y638313D01*
X974772Y639015D01*
X974015Y639772D01*
X973313Y640582D01*
X972671Y641440D01*
X972092Y642341D01*
X971578Y643281D01*
X971133Y644256D01*
X970759Y645260D01*
X970457Y646288D01*
X970229Y647335D01*
X970076Y648396D01*
X970000Y649464D01*
X970000Y650536D01*
X970076Y651604D01*
X970229Y652665D01*
X970457Y653712D01*
X970759Y654740D01*
X971133Y655744D01*
X971578Y656719D01*
X972092Y657659D01*
X972671Y658560D01*
X973313Y659418D01*
X974015Y660228D01*
X974772Y660985D01*
X975582Y661687D01*
X976440Y662329D01*
X977341Y662908D01*
X978281Y663422D01*
X979256Y663867D01*
X980260Y664241D01*
X981288Y664543D01*
X982335Y664771D01*
X983396Y664924D01*
X984464Y665000D01*
X985536Y665000D01*
X986604Y664924D01*
X987665Y664771D01*
X988712Y664543D01*
X989740Y664241D01*
X990744Y663867D01*
X991719Y663422D01*
X992659Y662908D01*
X993560Y662329D01*
X994418Y661687D01*
X995228Y660985D01*
X995985Y660228D01*
X996687Y659418D01*
X997329Y658560D01*
X997908Y657659D01*
X998422Y656719D01*
X998867Y655744D01*
X999241Y654740D01*
X999543Y653712D01*
X999771Y652665D01*
X999924Y651604D01*
X1000000Y650536D01*
X1000000Y649464D01*
M02*
