G04 EAGLE Gerber RS-274X export*
G75*
%MOMM*%
%FSLAX34Y34*%
%LPD*%
%INSolderpaste Top*%
%IPPOS*%
%AMOC8*
5,1,8,0,0,1.08239X$1,22.5*%
G01*
%ADD10R,3.100000X1.500000*%
%ADD11R,3.000000X0.750000*%


D10*
X377000Y151800D03*
X377000Y177200D03*
X377000Y202600D03*
X377000Y228000D03*
X377000Y253400D03*
X377000Y278800D03*
X377000Y304200D03*
X377000Y329600D03*
X377000Y355000D03*
X377000Y380400D03*
X377000Y405800D03*
X377000Y431200D03*
X377000Y456600D03*
X377000Y482000D03*
X377000Y507400D03*
X377000Y532800D03*
X377000Y558200D03*
X323000Y151800D03*
X323000Y177200D03*
X323000Y202600D03*
X323000Y228000D03*
X323000Y253400D03*
X323000Y278800D03*
X323000Y304200D03*
X323000Y329600D03*
X323000Y355000D03*
X323000Y380400D03*
X323000Y405800D03*
X323000Y431200D03*
X323000Y456600D03*
X323000Y482000D03*
X323000Y507400D03*
X323000Y532800D03*
X323000Y558200D03*
X777000Y151800D03*
X777000Y177200D03*
X777000Y202600D03*
X777000Y228000D03*
X777000Y253400D03*
X777000Y278800D03*
X777000Y304200D03*
X777000Y329600D03*
X777000Y355000D03*
X777000Y380400D03*
X777000Y405800D03*
X777000Y431200D03*
X777000Y456600D03*
X777000Y482000D03*
X777000Y507400D03*
X777000Y532800D03*
X777000Y558200D03*
X723000Y151800D03*
X723000Y177200D03*
X723000Y202600D03*
X723000Y228000D03*
X723000Y253400D03*
X723000Y278800D03*
X723000Y304200D03*
X723000Y329600D03*
X723000Y355000D03*
X723000Y380400D03*
X723000Y405800D03*
X723000Y431200D03*
X723000Y456600D03*
X723000Y482000D03*
X723000Y507400D03*
X723000Y532800D03*
X723000Y558200D03*
D11*
X16000Y145500D03*
X16000Y158200D03*
X16000Y170900D03*
X16000Y183600D03*
X16000Y196300D03*
X16000Y209000D03*
X16000Y221700D03*
X16000Y234400D03*
X16000Y247100D03*
X16000Y259800D03*
X16000Y272500D03*
X16000Y285200D03*
X16000Y297900D03*
X16000Y310600D03*
X16000Y323300D03*
X16000Y336000D03*
X16000Y348700D03*
X16000Y361400D03*
X16000Y374100D03*
X16000Y386800D03*
X16000Y399500D03*
X16000Y412200D03*
X16000Y424900D03*
X16000Y437600D03*
X16000Y450300D03*
X16000Y463000D03*
X16000Y475700D03*
X16000Y488400D03*
X16000Y501100D03*
X16000Y513800D03*
X16000Y526500D03*
X16000Y539200D03*
X16000Y551900D03*
X16000Y564600D03*
M02*
