G04 EAGLE Gerber RS-274X export*
G75*
%MOMM*%
%FSLAX34Y34*%
%LPD*%
%INSoldermask Bottom*%
%IPPOS*%
%AMOC8*
5,1,8,0,0,1.08239X$1,22.5*%
G01*
%ADD10C,1.503200*%
%ADD11C,3.203200*%
%ADD12R,3.203200X0.953200*%
%ADD13C,1.625600*%
%ADD14C,2.203200*%


D10*
X22500Y115000D03*
X22500Y595000D03*
D11*
X195000Y660000D03*
X195000Y50000D03*
X925000Y52500D03*
D12*
X16000Y145500D03*
X16000Y158200D03*
X16000Y170900D03*
X16000Y183600D03*
X16000Y196300D03*
X16000Y209000D03*
X16000Y221700D03*
X16000Y234400D03*
X16000Y247100D03*
X16000Y259800D03*
X16000Y272500D03*
X16000Y285200D03*
X16000Y297900D03*
X16000Y310600D03*
X16000Y323300D03*
X16000Y336000D03*
X16000Y348700D03*
X16000Y361400D03*
X16000Y374100D03*
X16000Y386800D03*
X16000Y399500D03*
X16000Y412200D03*
X16000Y424900D03*
X16000Y437600D03*
X16000Y450300D03*
X16000Y463000D03*
X16000Y475700D03*
X16000Y488400D03*
X16000Y501100D03*
X16000Y513800D03*
X16000Y526500D03*
X16000Y539200D03*
X16000Y551900D03*
X16000Y564600D03*
D11*
X985000Y60000D03*
X985000Y650000D03*
D13*
X762000Y83312D02*
X762000Y69088D01*
X736600Y69088D02*
X736600Y83312D01*
D14*
X574251Y618240D03*
X523451Y618240D03*
M02*
